<svg width="32" height="32" viewBox="0 0 16 16" xmlns="http://www.w3.org/2000/svg">
  <rect width="16" height="16" rx="3" fill="#0f0f12"/>
  <rect x="3" y="2" width="2" height="2" fill="#dc3c0a"/>
  <rect x="11" y="4" width="2" height="2" fill="#286ed2"/>
  <rect x="7" y="5" width="2" height="2" fill="#d2b96e"/>
  <rect x="6" y="8" width="2" height="2" fill="#d2b96e"/>
  <rect x="8" y="8" width="2" height="2" fill="#d2b96e"/>
  <rect x="4" y="10" width="2" height="2" fill="#d2b96e"/>
  <rect x="6" y="10" width="2" height="2" fill="#d2b96e"/>
  <rect x="8" y="10" width="2" height="2" fill="#d2b96e"/>
  <rect x="10" y="10" width="2" height="2" fill="#d2b96e"/>
  <rect x="2" y="12" width="2" height="2" fill="#d2b96e"/>
  <rect x="4" y="12" width="2" height="2" fill="#d2b96e"/>
  <rect x="6" y="12" width="2" height="2" fill="#d2b96e"/>
  <rect x="8" y="12" width="2" height="2" fill="#d2b96e"/>
  <rect x="10" y="12" width="2" height="2" fill="#d2b96e"/>
  <rect x="12" y="12" width="2" height="2" fill="#d2b96e"/>
  <rect x="0" y="14" width="2" height="2" fill="#6e6e73"/>
  <rect x="2" y="14" width="2" height="2" fill="#6e6e73"/>
  <rect x="4" y="14" width="2" height="2" fill="#6e6e73"/>
  <rect x="6" y="14" width="2" height="2" fill="#6e6e73"/>
  <rect x="8" y="14" width="2" height="2" fill="#6e6e73"/>
  <rect x="10" y="14" width="2" height="2" fill="#6e6e73"/>
  <rect x="12" y="14" width="2" height="2" fill="#6e6e73"/>
  <rect x="14" y="14" width="2" height="2" fill="#6e6e73"/>
</svg>
